<svg class="diagram-root" style="background: #f5f6f6" xmlns="http://www.w3.org/2000/svg" xmlns:xlink="http://www.w3.org/1999/xlink"><style>.diagram-root { font-family: "Helvetica Neue", sans-serif; font-size: 12px; } .t { overflow: visible; } .t-bg { y: 40; fill: #fff;   } .th { fill: #005aa0;   } .tht { fill: #fff; font-size: 14px;  } .tf { fill: #323c46; overflow: visible; } .tf.pk { fill: #005aa0; font-weight: bold; } .tf.fk { font-weight: bold; } .ty { fill: #adb1b5; font-weight: normal; text-anchor: end; } .r { fill: transparent; stroke: #c3c3c3; stroke-width: 1; } .l { stroke: 1; } .i { fill: #c2c7ce; stroke: #c2c7ce; } .i.ix { fill: #afb3b6; stroke: #000; } .fa { fill: transparent; overflow: visible; } .fa .bg.hover { fill: #f7f7f7; } .c { cy: 12; r: 4; stroke: #d2d2dc; fill: #d2d2dc; } .hr { fill: transparent; stroke: #323c46; stroke-opacity: 0.035; stroke-width: 13; } .dc { stroke: #fa5a3c; fill: #fa5a3c; } .x { stroke: white; stroke-width: 1; } .hl .th { fill: #1b9bff; } .hl .tht {  } .fhl .bg { fill: #e7f4ff; } .fhls .bg {  } .r.hl { stroke: #1b9bff; } .dim { opacity: 0.25; }</style><g class="drawing-wrapper" transform="translate(-39, 3) scale(1,1)"><g class="rs"><path d="M 560 84 m -1, 0 a 1,1 0 1,0 2,0 a 1,1 0 1,0 -2,0 M 560 84 m -0.5, 0 a 0.5,0.5 0 1,0 1,0 a 0.5,0.5 0 1,0 -1,0  M560 84 L560 84 548 84 M554 90 L554 90 554 78 M548 84 C 494.8 84, 496 354, 546 354 M 558 354 m -1, 0 a 1,1 0 1,0 2,0 a 1,1 0 1,0 -2,0 M 558 354 m -0.5, 0 a 0.5,0.5 0 1,0 1,0 a 0.5,0.5 0 1,0 -1,0  M558 354 L558 354 546 354 M 558 360 m -1, 0 a 1,1 0 1,0 2,0 a 1,1 0 1,0 -2,0 M 558 360 m -0.5, 0 a 0.5,0.5 0 1,0 1,0 a 0.5,0.5 0 1,0 -1,0  M558 360 L558 360 551 354 558 348 M 558 348 m -1, 0 a 1,1 0 1,0 2,0 a 1,1 0 1,0 -2,0 M 558 348 m -0.5, 0 a 0.5,0.5 0 1,0 1,0 a 0.5,0.5 0 1,0 -1,0 " id="h3558932611" class="r"></path><path d="M 560 84 m -1, 0 a 1,1 0 1,0 2,0 a 1,1 0 1,0 -2,0 M 560 84 m -0.5, 0 a 0.5,0.5 0 1,0 1,0 a 0.5,0.5 0 1,0 -1,0  M560 84 L560 84 548 84 M554 90 L554 90 554 78 M548 84 C 494.8 84, 496 379, 546 379 M 558 379 m -1, 0 a 1,1 0 1,0 2,0 a 1,1 0 1,0 -2,0 M 558 379 m -0.5, 0 a 0.5,0.5 0 1,0 1,0 a 0.5,0.5 0 1,0 -1,0  M558 379 L558 379 546 379 M 558 385 m -1, 0 a 1,1 0 1,0 2,0 a 1,1 0 1,0 -2,0 M 558 385 m -0.5, 0 a 0.5,0.5 0 1,0 1,0 a 0.5,0.5 0 1,0 -1,0  M558 385 L558 385 551 379 558 373 M 558 373 m -1, 0 a 1,1 0 1,0 2,0 a 1,1 0 1,0 -2,0 M 558 373 m -0.5, 0 a 0.5,0.5 0 1,0 1,0 a 0.5,0.5 0 1,0 -1,0 " id="h809494507" class="r"></path><path d="M 259.04 85 m -1, 0 a 1,1 0 1,0 2,0 a 1,1 0 1,0 -2,0 M 259.04 85 m -0.5, 0 a 0.5,0.5 0 1,0 1,0 a 0.5,0.5 0 1,0 -1,0  M259.04 85 L259.04 85 271.04 85 M265.04 91 L265.04 91 265.04 79 M271.04 85 C 321.04 85, 325.444 483, 263.7 483 M 251.7 483 m -1, 0 a 1,1 0 1,0 2,0 a 1,1 0 1,0 -2,0 M 251.7 483 m -0.5, 0 a 0.5,0.5 0 1,0 1,0 a 0.5,0.5 0 1,0 -1,0  M251.7 483 L251.7 483 263.7 483 M 251.7 489 m -1, 0 a 1,1 0 1,0 2,0 a 1,1 0 1,0 -2,0 M 251.7 489 m -0.5, 0 a 0.5,0.5 0 1,0 1,0 a 0.5,0.5 0 1,0 -1,0  M251.7 489 L251.7 489 258.7 483 251.7 477 M 251.7 477 m -1, 0 a 1,1 0 1,0 2,0 a 1,1 0 1,0 -2,0 M 251.7 477 m -0.5, 0 a 0.5,0.5 0 1,0 1,0 a 0.5,0.5 0 1,0 -1,0 " id="h981887485" class="r"></path><path d="M 63 210 m -1, 0 a 1,1 0 1,0 2,0 a 1,1 0 1,0 -2,0 M 63 210 m -0.5, 0 a 0.5,0.5 0 1,0 1,0 a 0.5,0.5 0 1,0 -1,0  M63 210 L63 210 51 210 M 63 216 m -1, 0 a 1,1 0 1,0 2,0 a 1,1 0 1,0 -2,0 M 63 216 m -0.5, 0 a 0.5,0.5 0 1,0 1,0 a 0.5,0.5 0 1,0 -1,0  M63 216 L63 216 56 210 63 204 M 63 204 m -1, 0 a 1,1 0 1,0 2,0 a 1,1 0 1,0 -2,0 M 63 204 m -0.5, 0 a 0.5,0.5 0 1,0 1,0 a 0.5,0.5 0 1,0 -1,0  M51 210 C 5.128125317852645 210, 6.3281253178526455 338, 49 338 M 61 338 m -1, 0 a 1,1 0 1,0 2,0 a 1,1 0 1,0 -2,0 M 61 338 m -0.5, 0 a 0.5,0.5 0 1,0 1,0 a 0.5,0.5 0 1,0 -1,0  M61 338 L61 338 49 338 M55 344 L55 344 55 332" id="h392259357" class="r"></path><path d="M 251.7 508 m -1, 0 a 1,1 0 1,0 2,0 a 1,1 0 1,0 -2,0 M 251.7 508 m -0.5, 0 a 0.5,0.5 0 1,0 1,0 a 0.5,0.5 0 1,0 -1,0  M251.7 508 L251.7 508 263.7 508 M 251.7 514 m -1, 0 a 1,1 0 1,0 2,0 a 1,1 0 1,0 -2,0 M 251.7 514 m -0.5, 0 a 0.5,0.5 0 1,0 1,0 a 0.5,0.5 0 1,0 -1,0  M251.7 514 L251.7 514 258.7 508 251.7 502 M 251.7 502 m -1, 0 a 1,1 0 1,0 2,0 a 1,1 0 1,0 -2,0 M 251.7 502 m -0.5, 0 a 0.5,0.5 0 1,0 1,0 a 0.5,0.5 0 1,0 -1,0  M263.7 508 C 311.4187954348467 508, 310.0267954348467 640, 266.02 640 M 254.02 640 m -1, 0 a 1,1 0 1,0 2,0 a 1,1 0 1,0 -2,0 M 254.02 640 m -0.5, 0 a 0.5,0.5 0 1,0 1,0 a 0.5,0.5 0 1,0 -1,0  M254.02 640 L254.02 640 266.02 640 M260.02 646 L260.02 646 260.02 634" id="h2014992638" class="r"></path><path d="M 558 404 m -1, 0 a 1,1 0 1,0 2,0 a 1,1 0 1,0 -2,0 M 558 404 m -0.5, 0 a 0.5,0.5 0 1,0 1,0 a 0.5,0.5 0 1,0 -1,0  M558 404 L558 404 546 404 M 558 410 m -1, 0 a 1,1 0 1,0 2,0 a 1,1 0 1,0 -2,0 M 558 410 m -0.5, 0 a 0.5,0.5 0 1,0 1,0 a 0.5,0.5 0 1,0 -1,0  M558 410 L558 410 551 404 558 398 M 558 398 m -1, 0 a 1,1 0 1,0 2,0 a 1,1 0 1,0 -2,0 M 558 398 m -0.5, 0 a 0.5,0.5 0 1,0 1,0 a 0.5,0.5 0 1,0 -1,0  M546 404 C 493.3022496216097 404, 496.3022496216097 538, 541 538 M 553 538 m -1, 0 a 1,1 0 1,0 2,0 a 1,1 0 1,0 -2,0 M 553 538 m -0.5, 0 a 0.5,0.5 0 1,0 1,0 a 0.5,0.5 0 1,0 -1,0  M553 538 L553 538 541 538 M547 544 L547 544 547 532" id="h1284853938" class="r"></path></g><g class="hrs"></g><g class="ts"><svg width="196.04" height="225" x="63" y="28" id="h13109213" class="t"><rect height="40" width="196.04" class="th"></rect><text x="13" y="25" class="tht">FILM</text><rect height="185" width="196.04" class="t-bg"></rect><text x="13" y="61" class="tf pk">FILM_ID<tspan x="183.04" class="ty">long</tspan></text><path d="M7,14A2,2 0 0,1 5,12A2,2 0 0,1 7,10A2,2 0 0,1 9,12A2,2 0 0,1 7,14M12.65,10C11.83,7.67 9.61,6 7, 6A6, 6 0 0, 0 1, 12A6, 6 0 0, 0 7, 18C9.61, 18 11.83, 16.33 12.65, 14H17V18H21V14H23V10H12.65Z" class="i pk" transform="translate(140.3525, 48) scale(0.65)"></path><text x="13" y="86" class="tf">NAME<tspan x="183.04" class="ty">varchar(50)</tspan></text><text x="13" y="111" class="tf">DESCRIPTION<tspan x="183.04" class="ty">varchar(200)</tspan></text><text x="13" y="136" class="tf">RELEASE_DATE<tspan x="183.04" class="ty">date</tspan></text><text x="13" y="161" class="tf">DURATION<tspan x="183.04" class="ty">int</tspan></text><text x="13" y="186" class="tf fk">MPA_ID<tspan x="183.04" class="ty">int</tspan></text><text x="13" y="211" class="tf">LIKES_COUNT<tspan x="183.04" class="ty">int</tspan></text></svg><svg width="142.02" height="100" x="61" y="281" id="h3819574827" class="t"><rect height="40" width="142.02" class="th"></rect><text x="13" y="25" class="tht">MPA</text><rect height="60" width="142.02" class="t-bg"></rect><text x="13" y="61" class="tf pk">MPA_ID<tspan x="129.02" class="ty">int</tspan></text><path d="M7,14A2,2 0 0,1 5,12A2,2 0 0,1 7,10A2,2 0 0,1 9,12A2,2 0 0,1 7,14M12.65,10C11.83,7.67 9.61,6 7, 6A6, 6 0 0, 0 1, 12A6, 6 0 0, 0 7, 18C9.61, 18 11.83, 16.33 12.65, 14H17V18H21V14H23V10H12.65Z" class="i pk" transform="translate(96.34617187500001, 48) scale(0.65)"></path><text x="13" y="86" class="tf">NAME<tspan x="129.02" class="ty">varchar(10)</tspan></text></svg><svg width="134.7" height="100" x="117" y="426" id="h309816033" class="t"><rect height="40" width="134.7" class="th"></rect><text x="13" y="25" class="tht">FILM_GENRE</text><rect height="60" width="134.7" class="t-bg"></rect><text x="13" y="61" class="tf pk">FILM_ID<tspan x="121.69999999999999" class="ty">long</tspan></text><path d="M7,14A2,2 0 0,1 5,12A2,2 0 0,1 7,10A2,2 0 0,1 9,12A2,2 0 0,1 7,14M12.65,10C11.83,7.67 9.61,6 7, 6A6, 6 0 0, 0 1, 12A6, 6 0 0, 0 7, 18C9.61, 18 11.83, 16.33 12.65, 14H17V18H21V14H23V10H12.65Z" class="i pk" transform="translate(79.01249999999999, 48) scale(0.65)"></path><text x="13" y="86" class="tf fk">GENRE_ID<tspan x="121.69999999999999" class="ty">int</tspan></text></svg><svg width="142.02" height="100" x="112" y="583" id="h17663445" class="t"><rect height="40" width="142.02" class="th"></rect><text x="13" y="25" class="tht">GENRE</text><rect height="60" width="142.02" class="t-bg"></rect><text x="13" y="61" class="tf pk">GENRE_ID<tspan x="129.02" class="ty">int</tspan></text><path d="M7,14A2,2 0 0,1 5,12A2,2 0 0,1 7,10A2,2 0 0,1 9,12A2,2 0 0,1 7,14M12.65,10C11.83,7.67 9.61,6 7, 6A6, 6 0 0, 0 1, 12A6, 6 0 0, 0 7, 18C9.61, 18 11.83, 16.33 12.65, 14H17V18H21V14H23V10H12.65Z" class="i pk" transform="translate(96.34617187500001, 48) scale(0.65)"></path><text x="13" y="86" class="tf">NAME<tspan x="129.02" class="ty">varchar(50)</tspan></text></svg><svg width="144.7" height="175" x="560" y="27" id="h4243341152" class="t"><rect height="40" width="144.7" class="th"></rect><text x="13" y="25" class="tht">USER</text><rect height="135" width="144.7" class="t-bg"></rect><text x="13" y="61" class="tf pk">USER_ID<tspan x="131.7" class="ty">long</tspan></text><path d="M7,14A2,2 0 0,1 5,12A2,2 0 0,1 7,10A2,2 0 0,1 9,12A2,2 0 0,1 7,14M12.65,10C11.83,7.67 9.61,6 7, 6A6, 6 0 0, 0 1, 12A6, 6 0 0, 0 7, 18C9.61, 18 11.83, 16.33 12.65, 14H17V18H21V14H23V10H12.65Z" class="i pk" transform="translate(89.01249999999999, 48) scale(0.65)"></path><text x="13" y="86" class="tf">EMAIL<tspan x="131.7" class="ty">varchar(50)</tspan></text><text x="13" y="111" class="tf">LOGIN<tspan x="131.7" class="ty">varchar(50)</tspan></text><text x="13" y="136" class="tf">NAME<tspan x="131.7" class="ty">varchar(50)</tspan></text><text x="13" y="161" class="tf">BIRTHDAY<tspan x="131.7" class="ty">date</tspan></text></svg><svg width="202.25" height="125" x="558" y="297" id="h109766652" class="t"><rect height="40" width="202.25" class="th"></rect><text x="13" y="25" class="tht">FRIENDS_LIST</text><rect height="85" width="202.25" class="t-bg"></rect><text x="13" y="61" class="tf pk">USER_ID<tspan x="189.25" class="ty">long</tspan></text><path d="M7,14A2,2 0 0,1 5,12A2,2 0 0,1 7,10A2,2 0 0,1 9,12A2,2 0 0,1 7,14M12.65,10C11.83,7.67 9.61,6 7, 6A6, 6 0 0, 0 1, 12A6, 6 0 0, 0 7, 18C9.61, 18 11.83, 16.33 12.65, 14H17V18H21V14H23V10H12.65Z" class="i pk" transform="translate(146.5625, 48) scale(0.65)"></path><text x="13" y="86" class="tf fk">FRIEND_ID<tspan x="189.25" class="ty">long</tspan></text><text x="13" y="111" class="tf fk">FRIENDSHIP_STATUS_ID<tspan x="189.25" class="ty">int</tspan></text></svg><svg width="222.25" height="100" x="553" y="481" id="h3745284579" class="t"><rect height="40" width="222.25" class="th"></rect><text x="13" y="25" class="tht">FRIENDSHIP_STATUS</text><rect height="60" width="222.25" class="t-bg"></rect><text x="13" y="61" class="tf pk">FRIENDSHIP_STATUS_ID<tspan x="209.25" class="ty">int</tspan></text><path d="M7,14A2,2 0 0,1 5,12A2,2 0 0,1 7,10A2,2 0 0,1 9,12A2,2 0 0,1 7,14M12.65,10C11.83,7.67 9.61,6 7, 6A6, 6 0 0, 0 1, 12A6, 6 0 0, 0 7, 18C9.61, 18 11.83, 16.33 12.65, 14H17V18H21V14H23V10H12.65Z" class="i pk" transform="translate(176.576171875, 48) scale(0.65)"></path><text x="13" y="86" class="tf">NAME<tspan x="209.25" class="ty">varchar(50)</tspan></text></svg></g></g><text class="qdbd-link" x="10" y="20">www.quickdatabasediagrams.com</text></svg>